<svg width="50" height="50" viewBox="0 0 50 50" fill="none" xmlns="http://www.w3.org/2000/svg">
<g clip-path="url(#clip0_59_485)">
<path d="M36.4325 21.2533L28.8215 13.5574C28.0871 12.8142 26.8019 12.8142 26.0675 13.5574L14.5675 25.1942C13.8108 25.9599 13.8108 27.2097 14.5675 27.981L22.9296 36.4426C22.9797 36.4933 23.0409 36.5384 23.0965 36.5721C23.2356 36.8255 23.5027 37 23.8087 37H36.0653C36.2211 37 36.3435 36.8761 36.3435 36.7185V35.5925C36.3435 35.4349 36.2211 35.311 36.0653 35.311H25.2886L36.4325 24.0345C37.1892 23.2745 37.1892 22.0246 36.4325 21.2533ZM15.747 26.7875C15.6802 26.7143 15.6691 26.6355 15.6691 26.5904C15.6691 26.5454 15.6802 26.4609 15.7525 26.3934L21.3607 20.7129L29.3612 28.8086L23.5527 34.6861L15.747 26.7875Z" fill="#172942"/>
</g>
<defs>
<clipPath id="clip0_59_485">
<rect width="23" height="24" fill="white" transform="translate(14 13)"/>
</clipPath>
</defs>
</svg>
