<svg width="50" height="50" viewBox="0 0 50 50" fill="none" xmlns="http://www.w3.org/2000/svg">
<path d="M22.5 32.25C22.5 31.6977 22.0499 31.257 21.5024 31.184C17.8353 30.6952 15 27.5493 15 23.75C15 19.6125 18.3625 16.25 22.5 16.25C26.2993 16.25 29.4452 19.0853 29.934 22.7524C30.007 23.2999 29.5523 23.75 29 23.75L27.4142 23.75C26.5233 23.75 26.0771 24.8271 26.7071 25.4571L30.5429 29.2929C30.9334 29.6834 31.5666 29.6834 31.9571 29.2929L35.7929 25.4571C36.4229 24.8271 35.9767 23.75 35.0858 23.75L33.5 23.75C32.9477 23.75 32.5052 23.301 32.4508 22.7514C31.9501 17.6957 27.688 13.75 22.5 13.75C16.975 13.75 12.5 18.225 12.5 23.75C12.5 28.938 16.4457 33.2001 21.5014 33.7008C22.051 33.7553 22.5 33.3023 22.5 32.75L22.5 32.25Z" fill="#ABABAB"/>
</svg>
