<svg width="50" height="50" viewBox="0 0 50 50" fill="none" xmlns="http://www.w3.org/2000/svg">
<path d="M27.5 32.25C27.5 31.6977 27.9501 31.257 28.4976 31.184C32.1647 30.6952 35 27.5493 35 23.75C35 19.6125 31.6375 16.25 27.5 16.25C23.7007 16.25 20.5548 19.0853 20.066 22.7524C19.993 23.2999 20.4477 23.75 21 23.75L22.5858 23.75C23.4767 23.75 23.9229 24.8271 23.2929 25.4571L19.4571 29.2929C19.0666 29.6834 18.4334 29.6834 18.0429 29.2929L14.2071 25.4571C13.5771 24.8271 14.0233 23.75 14.9142 23.75L16.5 23.75C17.0523 23.75 17.4948 23.301 17.5492 22.7514C18.0499 17.6957 22.312 13.75 27.5 13.75C33.025 13.75 37.5 18.225 37.5 23.75C37.5 28.938 33.5543 33.2001 28.4986 33.7008C27.949 33.7552 27.5 33.3023 27.5 32.75L27.5 32.25Z" fill="#ABABAB"/>
</svg>
